<svg width="1272" height="201" viewBox="0 0 1272 201" version="1.1" xmlns="http://www.w3.org/2000/svg" xmlns:xlink="http://www.w3.org/1999/xlink">
<title>The Matrix System</title>
<desc>Created using Figma</desc>
<g id="Canvas" transform="matrix(3 0 0 3 -6072 -66)">
<g id="The Matrix System" filter="url(#filter0_d)">
<use xlink:href="#path0_fill" transform="translate(1893 7)" fill="#F2F2F2"/>
</g>
</g>
<defs>
<filter id="filter0_d" filterUnits="userSpaceOnUse" x="2024" y="22" width="424" height="67" color-interpolation-filters="sRGB">
<feFlood flood-opacity="0" result="BackgroundImageFix"/>
<feColorMatrix in="SourceAlpha" type="matrix" values="0 0 0 0 0 0 0 0 0 0 0 0 0 0 0 0 0 0 255 0"/>
<feOffset dx="0" dy="0"/>
<feGaussianBlur stdDeviation="4"/>
<feColorMatrix type="matrix" values="0 0 0 0 1 0 0 0 0 1 0 0 0 0 1 0 0 0 0.49 0"/>
<feBlend mode="normal" in2="BackgroundImageFix" result="effect1_dropShadow"/>
<feBlend mode="normal" in="SourceGraphic" in2="effect1_dropShadow" result="shape"/>
</filter>
<path id="path0_fill" d="M 139.051 29.416L 139.051 25.864L 163.435 25.864L 163.435 29.416L 152.875 29.416L 152.875 61L 149.323 61L 149.323 29.416L 139.051 29.416ZM 167.521 61L 167.521 23.368L 171.073 23.368L 171.073 38.488C 173.697 36.984 175.537 36.056 176.593 35.704C 177.873 35.288 179.169 35.08 180.481 35.08C 183.521 35.08 185.761 36.312 187.201 38.776C 187.969 40.12 188.353 41.608 188.353 43.24L 188.353 61L 184.801 61L 184.801 43.24C 184.801 40.712 183.761 39.224 181.681 38.776C 181.297 38.68 180.897 38.632 180.481 38.632C 178.177 38.632 175.873 39.144 173.569 40.168C 173.089 40.392 172.257 40.792 171.073 41.368L 171.073 61L 167.521 61ZM 193.15 48.136C 193.15 42.696 194.046 39.112 195.838 37.384C 197.182 36.104 199.598 35.416 203.086 35.32C 203.47 35.32 203.87 35.32 204.286 35.32C 207.614 35.32 209.918 35.72 211.198 36.52C 213.086 37.768 214.03 40.376 214.03 44.344C 213.966 48.216 211.774 50.168 207.454 50.2L 196.702 50.2C 196.702 53.688 197.214 55.88 198.238 56.776C 198.942 57.384 200.046 57.688 201.55 57.688L 201.598 57.688L 201.646 57.688L 201.694 57.688L 201.742 57.688L 201.79 57.688L 201.838 57.688L 201.886 57.688L 201.934 57.688L 201.982 57.688L 202.03 57.688L 202.078 57.688L 202.126 57.688L 202.174 57.688L 202.222 57.688L 202.27 57.688L 202.318 57.688L 202.366 57.688L 202.414 57.688L 202.462 57.688L 202.51 57.688L 202.558 57.688L 202.606 57.688L 202.654 57.688L 202.702 57.688L 202.75 57.688L 202.798 57.688L 202.846 57.688L 202.894 57.688L 202.942 57.688L 202.99 57.688L 203.038 57.688L 203.086 57.688L 203.566 57.688C 208.046 57.688 211.374 57.528 213.55 57.208L 213.55 59.896C 210.382 60.792 206.382 61.24 201.55 61.24C 198.318 61.24 196.11 60.296 194.926 58.408C 193.742 56.52 193.15 53.096 193.15 48.136ZM 196.702 46.696L 207.454 46.696C 209.438 46.632 210.446 45.848 210.478 44.344C 210.478 41.912 210.11 40.376 209.374 39.736C 208.542 39.16 206.862 38.872 204.334 38.872C 201.646 38.872 199.886 39.08 199.054 39.496C 197.71 40.2 196.942 41.976 196.75 44.824C 196.718 45.4 196.702 46.024 196.702 46.696ZM 234.218 61L 236.522 25.864L 241.418 25.864L 250.778 55.096L 259.85 25.864L 264.698 25.864L 267.386 61L 263.834 61L 261.674 32.296L 252.65 61L 249.002 61L 239.69 32.296L 237.77 61L 234.218 61ZM 271.936 54.952L 271.936 52.024C 271.936 49.24 273.024 47.336 275.2 46.312C 276.128 45.864 277.168 45.64 278.32 45.64C 278.352 45.64 280.976 45.64 286.192 45.64C 286.608 45.64 286.976 45.64 287.296 45.64C 287.648 45.64 287.936 45.64 288.16 45.64C 288.416 45.64 288.608 45.64 288.736 45.64C 288.896 45.64 288.976 45.64 288.976 45.64C 288.976 45.608 288.976 44.824 288.976 43.288C 288.976 43.16 288.976 43.048 288.976 42.952C 288.976 42.856 288.976 42.776 288.976 42.712C 288.976 42.616 288.976 42.552 288.976 42.52C 288.976 42.456 288.976 42.424 288.976 42.424C 288.912 39.832 287.6 38.52 285.04 38.488C 282.128 38.488 278.032 38.68 272.752 39.064L 272.752 36.472C 276.016 35.576 280.16 35.096 285.184 35.032C 285.216 35.032 285.264 35.032 285.328 35.032C 288.496 35.032 290.656 36.248 291.808 38.68C 292.288 39.768 292.528 41.016 292.528 42.424L 292.528 61L 289.888 61L 288.976 57.928C 288.976 57.928 288.864 57.976 288.64 58.072C 284.288 60.216 280.848 61.288 278.32 61.288C 275.856 61.288 274.048 60.36 272.896 58.504C 272.256 57.48 271.936 56.296 271.936 54.952ZM 275.488 54.712C 275.552 56.696 276.496 57.704 278.32 57.736C 280.88 57.736 284.432 56.92 288.976 55.288L 288.976 48.424L 278.32 49.192C 276.528 49.544 275.584 50.584 275.488 52.312L 275.488 54.712ZM 295.866 39.016L 295.866 36.328L 300.618 35.464L 301.482 28.36L 304.17 28.36L 304.17 35.464L 311.61 35.464L 311.61 39.016L 304.17 39.016L 304.17 51.88C 304.17 54.76 304.81 56.504 306.09 57.112C 306.346 57.24 306.618 57.336 306.906 57.4C 306.906 57.4 308.33 57.736 311.178 58.408L 311.178 60.952L 306.954 60.952C 302.762 60.888 300.65 57.864 300.618 51.88L 300.618 39.016L 295.866 39.016ZM 315.927 61L 315.927 35.512L 318.423 35.512L 319.479 38.728C 322.071 37.224 323.815 36.312 324.711 35.992C 326.119 35.48 327.543 35.224 328.983 35.224C 330.807 35.224 331.991 35.352 332.535 35.608L 332.535 39.112C 331.735 38.92 330.551 38.824 328.983 38.824C 326.679 38.824 324.327 39.368 321.927 40.456C 321.479 40.648 320.663 41.032 319.479 41.608L 319.479 61L 315.927 61ZM 335.884 31.384L 335.884 28.792C 335.948 28.024 336.332 27.624 337.036 27.592L 339.436 27.592C 340.14 27.656 340.508 28.056 340.54 28.792L 340.54 31.384C 340.476 32.088 340.108 32.456 339.436 32.488L 337.036 32.488C 336.332 32.392 335.948 32.024 335.884 31.384ZM 336.364 61L 336.364 35.512L 339.916 35.512L 339.916 61L 336.364 61ZM 344.105 61L 353.321 48.232L 344.105 35.512L 348.521 35.512L 355.433 45.304L 362.537 35.512L 366.953 35.512L 357.641 48.376L 366.569 61L 362.537 61L 355.529 51.304L 348.521 61L 344.105 61ZM 386.854 37.288L 386.854 34.12C 386.854 29.576 388.742 26.856 392.518 25.96C 393.606 25.704 394.886 25.576 396.358 25.576C 398.534 25.576 402.534 25.96 408.358 26.728L 408.358 29.608L 396.358 29.128C 395.974 29.096 395.638 29.08 395.35 29.08C 393.11 29.08 391.654 29.736 390.982 31.048C 390.598 31.816 390.406 32.84 390.406 34.12L 390.406 37.288C 390.406 39.784 391.174 41.256 392.71 41.704C 393.318 41.896 394.182 41.992 395.302 41.992L 402.118 41.992C 406.95 41.992 409.446 44.536 409.606 49.624C 409.606 49.848 409.606 50.056 409.606 50.248L 409.606 53.512C 409.606 57.96 407.398 60.52 402.982 61.192C 402.086 61.32 401.062 61.384 399.91 61.384C 397.478 61.384 393.798 61.032 388.87 60.328C 388.486 60.264 388.166 60.216 387.91 60.184L 387.91 57.304C 391.43 57.656 395.43 57.832 399.91 57.832C 403.398 57.832 405.398 56.808 405.91 54.76C 406.006 54.344 406.054 53.928 406.054 53.512L 406.054 50.248C 406.054 47.464 405.03 45.912 402.982 45.592C 402.694 45.56 402.406 45.544 402.118 45.544L 395.398 45.544C 390.726 45.544 387.99 43.88 387.19 40.552C 386.966 39.656 386.854 38.568 386.854 37.288ZM 412.774 35.512L 416.662 35.512L 422.854 55.432C 423.302 56.744 424.086 57.416 425.206 57.448C 425.59 57.448 425.862 57.4 426.022 57.304L 433.318 35.512L 437.302 35.512L 426.07 69.064L 422.47 73.96L 420.262 73.96L 424.774 61C 422.054 61 420.15 59.288 419.062 55.864C 419.03 55.8 419.014 55.752 419.014 55.72L 412.774 35.512ZM 440.264 43.816L 440.264 41.608C 440.264 37.992 441.816 35.928 444.92 35.416C 445.528 35.32 446.184 35.272 446.888 35.272C 449.896 35.272 454.072 35.528 459.416 36.04L 459.416 38.776L 446.888 38.776C 445.128 38.776 444.136 39.256 443.912 40.216C 443.848 40.536 443.816 41 443.816 41.608L 443.816 43.816C 443.816 45.352 444.344 46.232 445.4 46.456C 445.752 46.52 446.248 46.552 446.888 46.552L 454.472 46.552C 457.544 46.552 459.496 47.8 460.328 50.296C 460.584 51.064 460.712 51.88 460.712 52.744L 460.712 55.096C 460.712 58.872 458.984 60.904 455.528 61.192C 455.176 61.224 454.824 61.24 454.472 61.24C 451.88 61.24 447.576 60.936 441.56 60.328C 441.464 60.328 441.384 60.328 441.32 60.328L 441.32 57.688L 454.472 57.688C 454.536 57.688 454.6 57.688 454.664 57.688C 456.072 57.688 456.888 57.032 457.112 55.72C 457.144 55.496 457.16 55.288 457.16 55.096L 457.16 52.744C 457.16 51.24 456.568 50.392 455.384 50.2C 455.096 50.136 454.792 50.104 454.472 50.104L 446.888 50.104C 443.88 50.104 441.944 49.336 441.08 47.8C 440.536 46.84 440.264 45.512 440.264 43.816ZM 463.585 39.016L 463.585 36.328L 468.337 35.464L 469.201 28.36L 471.889 28.36L 471.889 35.464L 479.329 35.464L 479.329 39.016L 471.889 39.016L 471.889 51.88C 471.889 54.76 472.529 56.504 473.809 57.112C 474.065 57.24 474.337 57.336 474.625 57.4C 474.625 57.4 476.049 57.736 478.897 58.408L 478.897 60.952L 474.673 60.952C 470.481 60.888 468.369 57.864 468.337 51.88L 468.337 39.016L 463.585 39.016ZM 483.166 48.136C 483.166 42.696 484.062 39.112 485.854 37.384C 487.198 36.104 489.614 35.416 493.102 35.32C 493.486 35.32 493.886 35.32 494.302 35.32C 497.63 35.32 499.934 35.72 501.214 36.52C 503.102 37.768 504.046 40.376 504.046 44.344C 503.982 48.216 501.79 50.168 497.47 50.2L 486.718 50.2C 486.718 53.688 487.23 55.88 488.254 56.776C 488.958 57.384 490.062 57.688 491.566 57.688L 491.614 57.688L 491.662 57.688L 491.71 57.688L 491.758 57.688L 491.806 57.688L 491.854 57.688L 491.902 57.688L 491.95 57.688L 491.998 57.688L 492.046 57.688L 492.094 57.688L 492.142 57.688L 492.19 57.688L 492.238 57.688L 492.286 57.688L 492.334 57.688L 492.382 57.688L 492.43 57.688L 492.478 57.688L 492.526 57.688L 492.574 57.688L 492.622 57.688L 492.67 57.688L 492.718 57.688L 492.766 57.688L 492.814 57.688L 492.862 57.688L 492.91 57.688L 492.958 57.688L 493.006 57.688L 493.054 57.688L 493.102 57.688L 493.582 57.688C 498.062 57.688 501.39 57.528 503.566 57.208L 503.566 59.896C 500.398 60.792 496.398 61.24 491.566 61.24C 488.334 61.24 486.126 60.296 484.942 58.408C 483.758 56.52 483.166 53.096 483.166 48.136ZM 486.718 46.696L 497.47 46.696C 499.454 46.632 500.462 45.848 500.494 44.344C 500.494 41.912 500.126 40.376 499.39 39.736C 498.558 39.16 496.878 38.872 494.35 38.872C 491.662 38.872 489.902 39.08 489.07 39.496C 487.726 40.2 486.958 41.976 486.766 44.824C 486.734 45.4 486.718 46.024 486.718 46.696ZM 508.864 61L 508.864 35.512L 511.36 35.512L 512.416 38.584C 514.912 37.144 516.544 36.28 517.312 35.992C 518.688 35.48 520.08 35.224 521.488 35.224C 524.208 35.224 526.288 36.056 527.728 37.72C 528.08 38.136 528.352 38.552 528.544 38.968C 531.584 36.472 535.008 35.224 538.816 35.224C 541.536 35.224 543.648 36.28 545.152 38.392C 546.176 39.832 546.688 41.512 546.688 43.432L 546.688 61L 543.136 61L 543.136 43.432C 543.136 41.384 542.352 39.976 540.784 39.208C 540.176 38.92 539.52 38.776 538.816 38.776C 535.712 38.776 533.024 39.4 530.752 40.648C 530.304 40.904 529.856 41.176 529.408 41.464L 529.408 43.336L 529.408 61L 525.856 61L 525.856 43.432C 525.856 41.384 525.056 39.976 523.456 39.208C 522.848 38.92 522.192 38.776 521.488 38.776C 519.312 38.776 517.152 39.256 515.008 40.216C 514.624 40.408 513.76 40.824 512.416 41.464L 512.416 61L 508.864 61Z"/>
</defs>
</svg>
